# xmcd
#
# Track frame offsets:
#	150
#	20940
#	37960
#	54180
#	74345
#	95050
#	112000
#	129610
#
# Disc length: 1994 seconds
#
# Revision: 0
# Processed by: cddbd v1.4PL0 Copyright (c) Steve Scherf et al.
# Submitted via: dBpowerAMP V4.0
#
DISCID=7007c808
DTITLE=Clyde Hopkins - Don't Mistreat a Friend
DYEAR=2002
DGENRE=Blues
TTITLE0=Hot Stuff
TTITLE1=The Shuffle
TTITLE2=Santa Fe
TTITLE3=Road House Blues
TTITLE4=Mojo
TTITLE5=Throw My Cap Outdoors
TTITLE6=Don't Mistreat a Friend
TTITLE7=My Baby Don't Sleep in the Bed With Me No More
EXTD=Bobby Janecka
EXTT0=
EXTT1=
EXTT2=
EXTT3=
EXTT4=
EXTT5=
EXTT6=
EXTT7=
PLAYORDER=
